<?xml version="1.0" encoding="UTF-8" standalone="no"?>
<!-- The icon can be used freely in both personal and commercial projects with no attribution required, but always appreciated. 
You may NOT sub-license, resell, rent, redistribute or otherwise transfer the icon without express written permission from iconmonstr.com -->

<svg
   xmlns:dc="http://purl.org/dc/elements/1.1/"
   xmlns:cc="http://creativecommons.org/ns#"
   xmlns:rdf="http://www.w3.org/1999/02/22-rdf-syntax-ns#"
   xmlns:svg="http://www.w3.org/2000/svg"
   xmlns="http://www.w3.org/2000/svg"
   xmlns:sodipodi="http://sodipodi.sourceforge.net/DTD/sodipodi-0.dtd"
   xmlns:inkscape="http://www.inkscape.org/namespaces/inkscape"
   version="1.1"
   x="0px"
   y="0px"
   width="512px"
   height="512px"
   viewBox="0 0 512 512"
   enable-background="new 0 0 512 512"
   xml:space="preserve"
   id="svg3057"
   inkscape:version="0.48.4 r9939"
   sodipodi:docname="bouton_variables.svg"
   inkscape:export-filename="/Users/buskulic/Fac/TICE/Projet editeur WIMS/Images_developpement/bouton_variables.png"
   inkscape:export-xdpi="13.750246"
   inkscape:export-ydpi="13.750246"><metadata
   id="metadata3064"><rdf:RDF><cc:Work
       rdf:about=""><dc:format>image/svg+xml</dc:format><dc:type
         rdf:resource="http://purl.org/dc/dcmitype/StillImage" /><dc:title></dc:title></cc:Work></rdf:RDF></metadata><defs
   id="defs3062" /><sodipodi:namedview
   pagecolor="#ffffff"
   bordercolor="#666666"
   borderopacity="1"
   objecttolerance="10"
   gridtolerance="10"
   guidetolerance="10"
   inkscape:pageopacity="0"
   inkscape:pageshadow="2"
   inkscape:window-width="640"
   inkscape:window-height="480"
   id="namedview3060"
   showgrid="false"
   inkscape:zoom="0.85"
   inkscape:cx="265.76471"
   inkscape:cy="256"
   inkscape:current-layer="svg3057" />

<rect
   style="fill:#7ab8d3;fill-opacity:1;fill-rule:evenodd;stroke:none"
   id="rect3834"
   width="394.11765"
   height="187.05882"
   x="52.941177"
   y="132"
   ry="72.941177" /><path
   id="gear-10-icon"
   d="m 293.12586,202.95409 0,-23.71147 -12.81173,-4.55593 c -4.88533,-1.7364 -8.81594,-5.46788 -10.80049,-10.25768 -0.001,-0.001 -0.003,-0.003 -0.003,-0.007 -1.99198,-4.80034 -1.8524,-10.22044 0.37781,-14.9141 l 5.83637,-12.27632 -16.76778,-16.76655 -12.27261,5.8339 c -4.69118,2.23081 -10.11932,2.37101 -14.91783,0.38153 -0.003,-0.003 -0.006,-0.003 -0.007,-0.003 -4.79353,-1.98703 -8.51756,-5.91269 -10.25644,-10.80176 l -4.55537,-12.81303 -23.71211,0 -4.55716,12.81296 c -1.73764,4.8841 -5.46663,8.81596 -10.25581,10.80173 -0.001,0 -0.003,0.001 -0.007,0.003 -4.80162,1.99076 -10.2217,1.85116 -14.91659,-0.38028 l -12.27387,-5.83511 -16.76775,16.76652 5.83511,12.27386 c 2.23082,4.69117 2.36979,10.11934 0.38028,14.91909 -0.001,0.001 -0.001,0.003 -0.003,0.007 -1.98578,4.79105 -5.91144,8.51695 -10.79928,10.25519 l -12.81241,4.556 0,23.71209 12.81296,4.55594 c 4.8841,1.73764 8.81471,5.46787 10.8005,10.25643 0.001,0.003 0.001,0.006 0.003,0.007 1.99074,4.8016 1.85115,10.2217 -0.37905,14.91659 l -5.83634,12.27511 16.76775,16.76528 12.27386,-5.83265 c 4.69117,-2.2308 10.11934,-2.36979 14.91909,-0.38028 0.001,0.001 0.003,0.003 0.004,0.003 4.79169,1.98701 8.51633,5.91019 10.25458,10.79925 l 4.55717,12.81171 23.71213,0 4.528,-12.72981 c 1.7519,-4.93001 5.51563,-8.89848 10.34639,-10.90721 0.003,-0.001 0.006,-0.001 0.009,-0.003 4.75567,-1.97834 10.12428,-1.84184 14.77576,0.3685 l 12.35141,5.87047 16.76775,-16.76526 -5.83883,-12.28254 c -2.22836,-4.68686 -2.36607,-10.10881 -0.37781,-14.90295 10e-4,-0.003 0.003,-0.003 0.003,-0.007 1.98949,-4.79662 5.91762,-8.52499 10.81043,-10.26512 l 12.80363,-4.55406 z m -88.03306,20.4285 c -17.83045,0 -32.28486,-14.45503 -32.28486,-32.28424 0,-17.83045 14.45441,-32.28551 32.28486,-32.28551 17.82919,0 32.28425,14.45506 32.28425,32.28551 0,17.82921 -14.45506,32.28424 -32.28425,32.28424 z m 167.55538,49.28714 0,-12.60575 -6.81097,-2.42065 c -2.59805,-0.9231 -4.68805,-2.90828 -5.74328,-5.45362 -10e-4,0 -10e-4,-0.001 -10e-4,-0.003 -1.05897,-2.55279 -0.98388,-5.43436 0.20223,-7.93007 l 3.10183,-6.52621 -8.914,-8.91274 -6.52497,3.10181 c -2.49385,1.18489 -5.37854,1.25995 -7.93008,0.20224 -10e-4,0 -0.003,0 -0.003,0 -2.54659,-1.0577 -4.52804,-3.144 -5.45111,-5.74331 l -2.4219,-6.81156 -12.60575,0 -2.42189,6.81156 c -0.92435,2.59683 -2.90701,4.68684 -5.45236,5.74331 -10e-4,0 -0.003,0 -0.003,0 -2.55093,1.05771 -5.43252,0.98389 -7.9282,-0.20224 l -6.52624,-3.10181 -8.91397,8.91274 3.10307,6.52621 c 1.18487,2.49385 1.25869,5.37976 0.20098,7.93007 0,0.001 0,0.003 -0.001,0.003 -1.05524,2.54782 -3.14278,4.52802 -5.74082,5.45238 l -6.81159,2.42064 0,12.60575 6.81159,2.42064 c 2.59681,0.9231 4.68682,2.90579 5.74082,5.45238 0.001,0.001 0.001,0.003 0.001,0.003 1.05895,2.55155 0.98513,5.43313 -0.20098,7.92885 l -3.10307,6.52619 8.91397,8.91276 6.52624,-3.10058 c 2.49382,-1.18613 5.37854,-1.25997 7.92945,-0.20225 10e-4,0 10e-4,0.001 0.003,0.001 2.54782,1.05523 4.52679,3.14151 5.45236,5.73958 l 2.42189,6.81281 12.60575,0 2.40639,-6.76815 c 0.93177,-2.621 2.93245,-4.73025 5.50074,-5.79913 10e-4,0 0.003,-10e-4 0.003,-10e-4 2.52736,-1.05152 5.38227,-0.97893 7.85502,0.19603 l 6.56593,3.12104 8.91397,-8.91273 -3.10305,-6.52932 c -1.18489,-2.49262 -1.25872,-5.37482 -0.20225,-7.92266 0,-0.001 10e-4,-0.003 10e-4,-0.003 1.05895,-2.55032 3.14647,-4.533 5.74701,-5.45857 l 6.80848,-2.41817 z m -46.79948,10.85881 c -9.47849,0 -17.1623,-7.68442 -17.1623,-17.16169 0,-9.47851 7.68381,-17.16294 17.1623,-17.16294 9.47851,0 17.16294,7.68443 17.16294,17.16294 0,9.47727 -7.68443,17.16169 -17.16294,17.16169 z"
   style="fill:#5b5b5b;fill-opacity:1"
   inkscape:connector-curvature="0"
   sodipodi:nodetypes="ccccccccccccccccccccccccccccccccccccccccccccccccccssssscccccccccccccccccsccccccccccccccccccccccccccccccccsssss" />

<path
   inkscape:connector-curvature="0"
   style="fill:#5b5b5b;fill-opacity:1"
   d="m 147.51352,283.89866 0,-6.91023 -4.80965,-1.20286 c -0.99566,-0.24941 -1.7823,-1.02112 -2.04721,-2.01371 -10e-4,-0.006 -0.003,-0.0112 -0.004,-0.0148 -0.26241,-0.97771 0.028,-2.0224 0.75559,-2.72526 l 3.5801,-3.46409 -3.4554,-5.98401 -4.74392,1.35611 c -1.00374,0.28721 -2.08873,0.009 -2.82759,-0.72956 -6.4e-4,-10e-4 -0.001,-10e-4 -0.001,-0.003 -0.70783,-0.70535 -0.97645,-1.7401 -0.70227,-2.70107 l 1.37784,-4.82081 -5.98402,-3.45541 -3.44674,3.56335 c -0.7134,0.737 -1.77237,1.03227 -2.76308,0.76677 -0.007,0 -0.0112,-0.003 -0.0147,-0.003 -0.98018,-0.26056 -1.74135,-1.03355 -1.98764,-2.01866 l -1.20847,-4.832 -6.91021,0 -1.20412,4.80904 c -0.24878,0.99568 -1.02111,1.78229 -2.0137,2.04782 -0.006,0.001 -0.0112,0.003 -0.0147,0.003 -0.97769,0.26303 -2.02113,-0.0279 -2.72524,-0.75498 l -3.46412,-3.58134 -5.983998,3.45541 1.35611,4.74452 c 0.28724,1.00313 0.009,2.08877 -0.72953,2.82823 -6.3e-4,0 -0.001,10e-4 -0.001,10e-4 -0.70598,0.70783 -1.74013,0.97644 -2.70106,0.70162 l -4.82145,-1.37781 -3.45419,5.984 3.56336,3.44613 c 0.73637,0.71339 1.03105,1.77359 0.76677,2.76368 -0.001,0.006 -0.003,0.0112 -0.004,0.0148 -0.26058,0.98017 -1.03414,1.74135 -2.01865,1.98703 l -4.83263,1.20906 0,6.91022 4.80967,1.20288 c 0.99629,0.24938 1.78229,1.02235 2.0472,2.0137 0.001,0.007 0.003,0.0112 0.003,0.0167 0.26303,0.97768 -0.0272,2.02112 -0.755,2.72523 l -3.58008,3.46411 3.45416,5.98401 4.74454,-1.35735 c 1.00375,-0.28598 2.08874,-0.009 2.82822,0.72956 6.2e-4,10e-4 0.001,0.003 0.003,0.003 0.7072,0.70536 0.9752,1.74136 0.701,2.70105 l -1.37844,4.82207 5.983988,3.4542 3.44673,-3.56336 c 0.71282,-0.737 1.77301,-1.03106 2.7631,-0.76677 0.007,10e-4 0.0112,0.003 0.0165,0.003 0.97955,0.26056 1.74075,1.03476 1.98703,2.01866 l 1.2097,4.83324 6.91021,0 1.2029,-4.81028 c 0.24937,-0.9957 1.02109,-1.78231 2.0143,-2.04659 0.004,-0.003 0.01,-0.003 0.0147,-0.004 0.97768,-0.2618 2.02113,0.0279 2.72524,0.75621 l 3.46348,3.58012 5.984,-3.45418 -1.35611,-4.74577 c -0.28661,-1.00313 -0.007,-2.08876 0.73018,-2.82701 6.3e-4,-0.001 10e-4,-0.001 10e-4,-0.003 0.70597,-0.70783 1.74072,-0.97521 2.70103,-0.70163 l 4.82021,1.37906 3.45543,-5.98401 -3.56336,-3.44735 c -0.73637,-0.71342 -1.03104,-1.77239 -0.76677,-2.7637 0.001,-0.006 0.003,-0.01 0.004,-0.0147 0.26118,-0.98016 1.03476,-1.74012 2.01865,-1.98701 l 4.83262,-1.2091 z m -31.73892,9.00143 c -6.87922,0 -12.45563,-5.57705 -12.45563,-12.45686 0,-6.87857 5.57641,-12.45562 12.45563,-12.45562 6.8798,0 12.4556,5.57705 12.4556,12.45562 0,6.87981 -5.5758,12.45686 -12.4556,12.45686 z"
   id="path3751"
   sodipodi:nodetypes="ccccccccccccccccccccccccccccccccccccccccccccccccccccccccccccccccccccccccccsssss" /></svg>